<?xml version="1.0" encoding="utf-8"?>
<!-- Generator: Adobe Illustrator 25.2.0, SVG Export Plug-In . SVG Version: 6.00 Build 0)  -->
<svg version="1.1" id="Layer_1" xmlns="http://www.w3.org/2000/svg" xmlns:xlink="http://www.w3.org/1999/xlink" x="0px" y="0px"
	 viewBox="0 0 187 60" style="enable-background:new 0 0 187 60;" xml:space="preserve">
<style type="text/css">
	.st0{fill:#FFFFFF;}
	.st1{fill:#214473;}
	.st2{fill:#94CECD;}
	.st3{fill:#FECA51;}
	.st4{fill:#292930;}
</style>
<path class="st0" d="M0,30c0-9.32,0-13.98,1.52-17.65c2.03-4.9,5.92-8.79,10.82-10.82C16.02,0,20.68,0,30,0l0,0
	c9.32,0,13.98,0,17.65,1.52c4.9,2.03,8.79,5.92,10.82,10.82C60,16.02,60,20.68,60,30l0,0c0,9.32,0,13.98-1.52,17.65
	c-2.03,4.9-5.92,8.79-10.82,10.82C43.98,60,39.32,60,30,60l0,0c-9.32,0-13.98,0-17.65-1.52c-4.9-2.03-8.79-5.92-10.82-10.82
	C0,43.98,0,39.32,0,30L0,30z"/>
<g>
	<path class="st1" d="M21.64,36.85c-0.85-0.72-1.55-1.57-2.09-2.53c-0.18,0-0.37-0.01-0.57-0.01h-5.96l-3.23,4.44h15.18
		C23.7,38.29,22.58,37.65,21.64,36.85z"/>
	<path class="st2" d="M38.73,21.52c-0.56,0.23-1.05,0.52-1.47,0.84c-0.69,0.54-1.21,1.21-1.54,1.98c-0.22,0.52-0.37,1.08-0.44,1.67
		h-5.7c-0.72,0-1.39,0.1-2.02,0.31c-0.62,0.21-1.15,0.5-1.6,0.87c-0.45,0.37-0.8,0.81-1.06,1.33c-0.18,0.37-0.3,0.76-0.35,1.19
		l-3.4-4.92c0.09-0.11,0.19-0.21,0.29-0.31c0.05-0.05,0.1-0.1,0.15-0.15c0.03-0.03,0.05-0.05,0.08-0.07
		c0.04-0.04,0.09-0.09,0.14-0.12c0.05-0.05,0.11-0.09,0.16-0.14c0.01-0.01,0.01-0.01,0.02-0.01c0.05-0.04,0.09-0.08,0.14-0.12
		c0.92-0.75,2.02-1.33,3.29-1.73c1.27-0.4,2.66-0.61,4.16-0.61H38.73z"/>
	<path class="st1" d="M29.9,38.76h-1.51c-1.05-0.09-2.04-0.3-2.97-0.62c-0.24-0.09-0.48-0.18-0.71-0.27
		c-0.98-0.42-1.84-0.94-2.58-1.57c-0.67-0.57-1.23-1.21-1.68-1.92c0,0,0,0,0,0c0-0.01-0.01-0.01-0.01-0.02
		c-0.24-0.31-0.52-0.69-0.83-1.16c-0.32-0.47-0.62-0.92-0.92-1.33l-0.1-0.15l-3-4.43L7.47,38.76H1.13l11.09-15.63
		c0.36-0.5,0.82-0.95,1.37-1.34c0.55-0.4,1.25-0.59,2.09-0.59c0.81,0,1.49,0.19,2.03,0.56c0.54,0.37,1,0.83,1.38,1.38l1.12,1.62
		l0.44,0.64l0.71,1.03l3.23,4.68l1.6,2.32L29.9,38.76z"/>
	<path class="st2" d="M37.81,34.37l-3.44,4.44h-3.55l-3.28-4.74c0,0,0.01,0,0.01,0c0.62,0.2,1.29,0.3,2.02,0.3H37.81z"/>
	<path class="st3" d="M58.87,33.1c0,0.88-0.14,1.67-0.41,2.38c-0.28,0.71-0.72,1.3-1.32,1.78c-0.6,0.48-1.37,0.85-2.31,1.11
		c-0.94,0.26-2.06,0.39-3.37,0.39h-16.1l3.4-4.4l0.04-0.05h13.08c0.64,0,1.1-0.1,1.4-0.3c0.29-0.2,0.44-0.52,0.44-0.97
		c0-0.45-0.15-0.77-0.44-0.96c-0.29-0.19-0.76-0.28-1.4-0.28h-9.41c-1.12,0-2.09-0.12-2.89-0.36c-0.81-0.24-1.48-0.58-2.02-1.01
		c-0.53-0.43-0.93-0.95-1.19-1.56c-0.26-0.61-0.39-1.29-0.39-2.03c0-0.03,0-0.06,0-0.09c0-0.25,0.02-0.5,0.05-0.74
		c0.07-0.49,0.19-0.95,0.37-1.38c0.28-0.66,0.72-1.23,1.32-1.69c0.59-0.46,1.36-0.83,2.3-1.08c0.5-0.14,1.05-0.24,1.65-0.3
		c0.31-0.03,0.64-0.06,0.99-0.07c0.24-0.01,0.48-0.01,0.73-0.01H58.4l-3.44,4.5H42.97c-0.62,0-1.08,0.09-1.38,0.26
		c-0.3,0.17-0.45,0.48-0.45,0.93c0,0.45,0.15,0.76,0.45,0.94c0.3,0.18,0.76,0.27,1.38,0.27h9.41c2.12,0,3.73,0.39,4.83,1.18
		C58.31,30.33,58.87,31.52,58.87,33.1z"/>
</g>
<g>
	<g>
		<path class="st4" d="M84.51,28.38l7.74-17.36h3.97l7.76,17.36h-4.22l-6.35-15.33H95l-6.37,15.33H84.51z M88.38,24.65l1.07-3.05
			h8.93l1.09,3.05H88.38z"/>
		<path class="st4" d="M105.79,28.38V11.01h7.52c1.55,0,2.89,0.25,4.02,0.76c1.12,0.5,1.99,1.23,2.6,2.17
			c0.61,0.94,0.92,2.07,0.92,3.37c0,1.29-0.31,2.4-0.92,3.34c-0.61,0.93-1.48,1.65-2.6,2.15c-1.12,0.5-2.46,0.74-4.02,0.74h-5.28
			l1.79-1.76v6.6H105.79z M109.81,22.22l-1.79-1.88h5.06c1.24,0,2.17-0.27,2.78-0.81c0.61-0.54,0.92-1.28,0.92-2.22
			c0-0.96-0.31-1.7-0.92-2.23c-0.61-0.53-1.54-0.79-2.78-0.79h-5.06l1.79-1.91V22.22z M116.83,28.38l-4.34-6.3h4.29l4.39,6.3H116.83
			z"/>
		<path class="st4" d="M124.02,28.38V11.01h4.02v17.36H124.02z"/>
		<path class="st4" d="M136.18,28.38h-4.02V11.01h13.12v3.22h-9.1V28.38z M135.88,18.83h8.33v3.22h-8.33V18.83z"/>
		<path class="st4" d="M155.72,28.67c-2.46,0-4.39-0.69-5.78-2.06c-1.39-1.37-2.08-3.33-2.08-5.88v-9.72h4.02v9.57
			c0,1.65,0.34,2.84,1.02,3.57c0.68,0.73,1.63,1.09,2.85,1.09s2.17-0.36,2.85-1.09c0.68-0.73,1.02-1.92,1.02-3.57v-9.57h3.97v9.72
			c0,2.55-0.69,4.51-2.08,5.88C160.11,27.99,158.19,28.67,155.72,28.67z"/>
		<path class="st4" d="M167.55,28.38V11.01h4.02V25.1h8.71v3.27H167.55z"/>
	</g>
	<g>
		<path class="st4" d="M88.51,38.71c-0.57,0-1.1-0.09-1.59-0.28c-0.49-0.19-0.91-0.45-1.27-0.8c-0.36-0.34-0.64-0.75-0.84-1.21
			c-0.2-0.46-0.3-0.97-0.3-1.53s0.1-1.06,0.3-1.53c0.2-0.46,0.48-0.87,0.84-1.21c0.36-0.34,0.78-0.61,1.27-0.8
			c0.48-0.19,1.02-0.28,1.59-0.28c0.64,0,1.22,0.11,1.73,0.33s0.95,0.55,1.3,0.97l-1.1,1.01c-0.25-0.29-0.53-0.5-0.84-0.65
			s-0.65-0.22-1.01-0.22c-0.34,0-0.66,0.06-0.95,0.17c-0.29,0.11-0.54,0.27-0.75,0.48c-0.21,0.21-0.37,0.46-0.49,0.75
			s-0.17,0.61-0.17,0.96c0,0.35,0.06,0.67,0.17,0.96s0.28,0.54,0.49,0.75c0.21,0.21,0.46,0.37,0.75,0.48s0.6,0.17,0.95,0.17
			c0.37,0,0.7-0.07,1.01-0.22c0.31-0.14,0.59-0.36,0.84-0.66l1.1,1.01c-0.35,0.43-0.78,0.75-1.3,0.98S89.15,38.71,88.51,38.71z"/>
		<path class="st4" d="M99.53,38.58V31.2h3.19c0.66,0,1.23,0.11,1.71,0.32c0.48,0.21,0.85,0.52,1.11,0.92
			c0.26,0.4,0.39,0.88,0.39,1.43c0,0.55-0.13,1.02-0.39,1.42c-0.26,0.4-0.63,0.7-1.11,0.91c-0.48,0.21-1.05,0.32-1.71,0.32h-2.24
			l0.76-0.75v2.8H99.53z M101.23,35.97l-0.76-0.8h2.15c0.53,0,0.92-0.11,1.18-0.34c0.26-0.23,0.39-0.54,0.39-0.94
			c0-0.41-0.13-0.72-0.39-0.95c-0.26-0.22-0.65-0.34-1.18-0.34h-2.15l0.76-0.81V35.97z M104.21,38.58l-1.84-2.68h1.82l1.86,2.68
			H104.21z"/>
		<path class="st4" d="M116.4,37.21h4.01v1.37h-5.71V31.2h5.57v1.37h-3.88V37.21z M116.27,34.18h3.55v1.33h-3.55V34.18z"/>
		<path class="st4" d="M128.18,38.58l3.29-7.37h1.69l3.3,7.37h-1.79l-2.7-6.51h0.67l-2.71,6.51H128.18z M129.82,37l0.45-1.3h3.79
			l0.46,1.3H129.82z"/>
		<path class="st4" d="M146.22,38.58V32.6h-2.36V31.2h6.43v1.39h-2.36v5.98H146.22z"/>
		<path class="st4" d="M161.85,38.71c-0.58,0-1.12-0.09-1.62-0.28s-0.92-0.46-1.29-0.8c-0.36-0.34-0.64-0.75-0.84-1.21
			c-0.2-0.46-0.3-0.97-0.3-1.52s0.1-1.05,0.3-1.52c0.2-0.46,0.48-0.87,0.85-1.21s0.79-0.61,1.29-0.8c0.49-0.19,1.03-0.28,1.6-0.28
			c0.58,0,1.12,0.09,1.61,0.28c0.49,0.19,0.91,0.46,1.27,0.8s0.64,0.75,0.85,1.21c0.2,0.46,0.3,0.97,0.3,1.52
			c0,0.55-0.1,1.06-0.3,1.52c-0.2,0.47-0.49,0.87-0.85,1.21s-0.79,0.61-1.27,0.79S162.43,38.71,161.85,38.71z M161.84,37.25
			c0.33,0,0.63-0.06,0.91-0.17s0.52-0.27,0.73-0.48c0.21-0.21,0.37-0.46,0.49-0.75c0.12-0.29,0.17-0.61,0.17-0.96
			c0-0.35-0.06-0.67-0.17-0.96c-0.12-0.29-0.28-0.54-0.48-0.75c-0.21-0.21-0.45-0.37-0.73-0.48c-0.28-0.11-0.59-0.17-0.92-0.17
			c-0.33,0-0.63,0.06-0.91,0.17c-0.28,0.11-0.52,0.27-0.73,0.48c-0.21,0.21-0.37,0.46-0.49,0.75s-0.17,0.61-0.17,0.96
			c0,0.34,0.06,0.66,0.17,0.95c0.12,0.29,0.28,0.54,0.48,0.75s0.45,0.37,0.73,0.48S161.51,37.25,161.84,37.25z"/>
		<path class="st4" d="M173.33,38.58V31.2h3.19c0.66,0,1.23,0.11,1.71,0.32s0.85,0.52,1.11,0.92c0.26,0.4,0.39,0.88,0.39,1.43
			c0,0.55-0.13,1.02-0.39,1.42c-0.26,0.4-0.63,0.7-1.11,0.91c-0.48,0.21-1.05,0.32-1.71,0.32h-2.24l0.76-0.75v2.8H173.33z
			 M175.04,35.97l-0.76-0.8h2.15c0.53,0,0.92-0.11,1.18-0.34c0.26-0.23,0.39-0.54,0.39-0.94c0-0.41-0.13-0.72-0.39-0.95
			c-0.26-0.22-0.65-0.34-1.18-0.34h-2.15l0.76-0.81V35.97z M178.02,38.58l-1.84-2.68H178l1.86,2.68H178.02z"/>
	</g>
	<g>
		<path class="st4" d="M87.51,48.99c-0.59,0-1.16-0.08-1.7-0.24c-0.54-0.16-0.98-0.36-1.31-0.62l0.58-1.29
			c0.32,0.23,0.69,0.41,1.12,0.55c0.43,0.14,0.87,0.22,1.31,0.22c0.34,0,0.61-0.03,0.82-0.1c0.21-0.07,0.36-0.16,0.46-0.28
			c0.1-0.12,0.15-0.26,0.15-0.41c0-0.2-0.08-0.35-0.23-0.47c-0.15-0.12-0.36-0.21-0.61-0.28c-0.25-0.07-0.53-0.14-0.84-0.21
			c-0.31-0.07-0.61-0.15-0.92-0.25c-0.31-0.1-0.58-0.22-0.84-0.38s-0.46-0.36-0.62-0.61c-0.16-0.25-0.24-0.58-0.24-0.97
			c0-0.42,0.11-0.81,0.34-1.15c0.23-0.35,0.57-0.62,1.03-0.83s1.04-0.31,1.73-0.31c0.46,0,0.92,0.05,1.37,0.16
			c0.45,0.11,0.85,0.27,1.19,0.49l-0.53,1.3c-0.34-0.2-0.69-0.34-1.03-0.44s-0.68-0.14-1.01-0.14c-0.33,0-0.6,0.04-0.81,0.12
			c-0.21,0.08-0.36,0.18-0.45,0.3c-0.09,0.12-0.14,0.27-0.14,0.43c0,0.19,0.08,0.34,0.23,0.46c0.15,0.12,0.36,0.21,0.61,0.28
			c0.25,0.07,0.53,0.14,0.84,0.21c0.31,0.07,0.61,0.15,0.92,0.24c0.31,0.09,0.58,0.21,0.84,0.37s0.46,0.36,0.62,0.61
			s0.24,0.57,0.24,0.96c0,0.42-0.12,0.79-0.35,1.14c-0.23,0.34-0.58,0.62-1.04,0.83S88.22,48.99,87.51,48.99z"/>
		<path class="st4" d="M104.4,48.86v-5.98h-2.36v-1.39h6.43v1.39h-2.36v5.98H104.4z"/>
		<path class="st4" d="M122.93,48.99c-1.05,0-1.86-0.29-2.45-0.87s-0.89-1.42-0.89-2.5v-4.13h1.71v4.07c0,0.7,0.14,1.21,0.43,1.52
			c0.29,0.31,0.69,0.46,1.21,0.46c0.52,0,0.92-0.15,1.21-0.46c0.29-0.31,0.43-0.81,0.43-1.52v-4.07h1.69v4.13
			c0,1.08-0.29,1.91-0.89,2.5C124.79,48.7,123.97,48.99,122.93,48.99z"/>
		<path class="st4" d="M136.89,48.86v-7.38h3.35c0.8,0,1.51,0.15,2.12,0.46c0.61,0.3,1.09,0.73,1.43,1.28
			c0.34,0.55,0.52,1.2,0.52,1.95c0,0.75-0.17,1.39-0.52,1.94c-0.34,0.55-0.82,0.98-1.43,1.29c-0.61,0.31-1.32,0.46-2.12,0.46H136.89
			z M138.6,47.46h1.56c0.49,0,0.92-0.09,1.28-0.28c0.36-0.19,0.64-0.45,0.84-0.79c0.2-0.34,0.3-0.75,0.3-1.21
			c0-0.47-0.1-0.88-0.3-1.22s-0.48-0.6-0.84-0.79c-0.36-0.19-0.79-0.28-1.28-0.28h-1.56V47.46z"/>
		<path class="st4" d="M157.42,48.86v-7.38h1.71v7.38H157.42z"/>
		<path class="st4" d="M175.96,48.99c-0.58,0-1.12-0.09-1.62-0.28s-0.92-0.46-1.29-0.8c-0.36-0.34-0.64-0.75-0.84-1.21
			c-0.2-0.46-0.3-0.97-0.3-1.52s0.1-1.05,0.3-1.52c0.2-0.46,0.48-0.87,0.85-1.21s0.79-0.61,1.29-0.8c0.49-0.19,1.03-0.28,1.6-0.28
			c0.58,0,1.12,0.09,1.61,0.28s0.91,0.46,1.27,0.8s0.64,0.75,0.85,1.21c0.2,0.46,0.3,0.97,0.3,1.52c0,0.55-0.1,1.06-0.3,1.52
			c-0.2,0.47-0.49,0.87-0.85,1.21s-0.79,0.61-1.27,0.79S176.53,48.99,175.96,48.99z M175.95,47.53c0.33,0,0.63-0.06,0.91-0.17
			s0.52-0.27,0.73-0.48c0.21-0.21,0.37-0.46,0.49-0.75c0.12-0.29,0.17-0.61,0.17-0.96c0-0.35-0.06-0.67-0.17-0.96
			c-0.12-0.29-0.28-0.54-0.48-0.75c-0.21-0.21-0.45-0.37-0.73-0.48s-0.59-0.17-0.92-0.17c-0.33,0-0.63,0.06-0.91,0.17
			s-0.52,0.27-0.73,0.48c-0.21,0.21-0.37,0.46-0.49,0.75c-0.12,0.29-0.17,0.61-0.17,0.96c0,0.34,0.06,0.66,0.17,0.95
			c0.12,0.29,0.28,0.54,0.48,0.75s0.45,0.37,0.73,0.48S175.62,47.53,175.95,47.53z"/>
	</g>
</g>
</svg>
