<?xml version="1.0" encoding="utf-8"?>
<!-- Generator: Adobe Illustrator 17.1.0, SVG Export Plug-In . SVG Version: 6.00 Build 0)  -->
<!DOCTYPE svg PUBLIC "-//W3C//DTD SVG 1.1//EN" "http://www.w3.org/Graphics/SVG/1.1/DTD/svg11.dtd">
<svg version="1.1" id="Layer_1" xmlns="http://www.w3.org/2000/svg" xmlns:xlink="http://www.w3.org/1999/xlink" x="0px" y="0px"
	 viewBox="0 0 70.5 60" enable-background="new 0 0 70.5 60" xml:space="preserve">
<g>
	<path fill="#FFFFFF" d="M5.3,30c0-9.3,0-14,1.5-17.7c2-4.9,5.9-8.8,10.8-10.8C21.3,0,25.9,0,35.3,0l0,0c9.3,0,14,0,17.7,1.5
		c4.9,2,8.8,5.9,10.8,10.8c1.5,3.7,1.5,8.3,1.5,17.7l0,0c0,9.3,0,14-1.5,17.7c-2,4.9-5.9,8.8-10.8,10.8C49.2,60,44.6,60,35.3,60l0,0
		c-9.3,0-14,0-17.7-1.5c-4.9-2-8.8-5.9-10.8-10.8C5.3,44,5.3,39.3,5.3,30L5.3,30z"/>
	<g>
		<path fill="#214473" d="M27.7,36.2c-0.8-0.7-1.4-1.4-1.9-2.3c-0.2,0-0.3,0-0.5,0h-5.4l-2.9,4h13.7C29.6,37.5,28.6,36.9,27.7,36.2z
			"/>
		<path fill="#94CECD" d="M43.1,22.4c-0.5,0.2-0.9,0.5-1.3,0.8c-0.6,0.5-1.1,1.1-1.4,1.8c-0.2,0.5-0.3,1-0.4,1.5h-5.1
			c-0.7,0-1.3,0.1-1.8,0.3c-0.6,0.2-1,0.4-1.4,0.8c-0.4,0.3-0.7,0.7-1,1.2c-0.2,0.3-0.3,0.7-0.3,1.1l-3.1-4.4
			c0.1-0.1,0.2-0.2,0.3-0.3c0,0,0.1-0.1,0.1-0.1c0,0,0,0,0.1-0.1c0,0,0.1-0.1,0.1-0.1c0,0,0.1-0.1,0.1-0.1c0,0,0,0,0,0
			c0,0,0.1-0.1,0.1-0.1c0.8-0.7,1.8-1.2,3-1.6c1.1-0.4,2.4-0.5,3.8-0.5H43.1z"/>
		<path fill="#214473" d="M35.2,37.9h-1.4c-0.9-0.1-1.8-0.3-2.7-0.6c-0.2-0.1-0.4-0.2-0.6-0.2c-0.9-0.4-1.7-0.8-2.3-1.4
			c-0.6-0.5-1.1-1.1-1.5-1.7c0,0,0,0,0,0c0,0,0,0,0,0c-0.2-0.3-0.5-0.6-0.7-1c-0.3-0.4-0.6-0.8-0.8-1.2L25,31.5l-2.7-4l-7.3,10.3
			H9.2l10-14.1c0.3-0.5,0.7-0.9,1.2-1.2c0.5-0.4,1.1-0.5,1.9-0.5c0.7,0,1.3,0.2,1.8,0.5c0.5,0.3,0.9,0.7,1.2,1.2l1,1.5l0.4,0.6
			l0.6,0.9l2.9,4.2l1.4,2.1L35.2,37.9z"/>
		<path fill="#94CECD" d="M42.3,33.9l-3.1,4H36l-3-4.3c0,0,0,0,0,0c0.6,0.2,1.2,0.3,1.8,0.3H42.3z"/>
		<path fill="#FECA51" d="M61.3,32.8c0,0.8-0.1,1.5-0.4,2.1c-0.2,0.6-0.6,1.2-1.2,1.6c-0.5,0.4-1.2,0.8-2.1,1
			c-0.8,0.2-1.9,0.3-3,0.3H40.1l3.1-4l0,0H55c0.6,0,1-0.1,1.3-0.3c0.3-0.2,0.4-0.5,0.4-0.9c0-0.4-0.1-0.7-0.4-0.9
			c-0.3-0.2-0.7-0.3-1.3-0.3h-8.5c-1,0-1.9-0.1-2.6-0.3c-0.7-0.2-1.3-0.5-1.8-0.9C41.6,30,41.2,29.5,41,29c-0.2-0.6-0.3-1.2-0.3-1.8
			c0,0,0-0.1,0-0.1c0-0.2,0-0.5,0-0.7c0.1-0.4,0.2-0.9,0.3-1.2c0.3-0.6,0.7-1.1,1.2-1.5c0.5-0.4,1.2-0.7,2.1-1
			c0.4-0.1,0.9-0.2,1.5-0.3c0.3,0,0.6-0.1,0.9-0.1c0.2,0,0.4,0,0.7,0h13.5l-3.1,4.1H46.9c-0.6,0-1,0.1-1.2,0.2
			c-0.3,0.2-0.4,0.4-0.4,0.8c0,0.4,0.1,0.7,0.4,0.9c0.3,0.2,0.7,0.2,1.2,0.2h8.5c1.9,0,3.4,0.4,4.4,1.1
			C60.8,30.3,61.3,31.4,61.3,32.8z"/>
	</g>
</g>
</svg>
