<?xml version="1.0" encoding="utf-8"?>
<!-- Generator: Adobe Illustrator 25.2.0, SVG Export Plug-In . SVG Version: 6.00 Build 0)  -->
<svg version="1.1" id="Layer_1" xmlns="http://www.w3.org/2000/svg" xmlns:xlink="http://www.w3.org/1999/xlink" x="0px" y="0px"
	 viewBox="0 0 187 60" style="enable-background:new 0 0 187 60;" xml:space="preserve">
<style type="text/css">
	.st0{fill:url(#SVGID_1_);}
	.st1{fill:#FFFFFF;}
	.st2{fill:#214473;}
	.st3{fill:#94CECD;}
	.st4{fill:#FECA51;}
</style>
<linearGradient id="SVGID_1_" gradientUnits="userSpaceOnUse" x1="8.2536" y1="57.7922" x2="51.2536" y2="6.7922" gradientTransform="matrix(1 0 0 -1 0 62)">
	<stop  offset="0" style="stop-color:#6964EE"/>
	<stop  offset="0.6738" style="stop-color:#9B92FF"/>
</linearGradient>
<path class="st0" d="M0,30c0-9.32,0-13.98,1.52-17.65c2.03-4.9,5.92-8.79,10.82-10.82C16.02,0,20.68,0,30,0l0,0
	c9.32,0,13.98,0,17.65,1.52c4.9,2.03,8.79,5.92,10.82,10.82C60,16.02,60,20.68,60,30l0,0c0,9.32,0,13.98-1.52,17.65
	c-2.03,4.9-5.92,8.79-10.82,10.82C43.98,60,39.32,60,30,60l0,0c-9.32,0-13.98,0-17.65-1.52c-4.9-2.03-8.79-5.92-10.82-10.82
	C0,43.98,0,39.32,0,30L0,30z"/>
<g>
	<path class="st1" d="M23.34,35.46c-0.68-0.58-1.24-1.25-1.67-2.01c-0.14,0-0.29-0.01-0.45-0.01h-4.75l-2.57,3.54h12.09
		C24.98,36.61,24.09,36.1,23.34,35.46z"/>
	<path class="st1" d="M36.95,23.25c-0.45,0.19-0.84,0.41-1.17,0.67c-0.55,0.43-0.96,0.96-1.23,1.58c-0.18,0.41-0.29,0.86-0.35,1.33
		h-4.54c-0.58,0-1.11,0.08-1.61,0.25c-0.49,0.16-0.92,0.39-1.28,0.69c-0.36,0.29-0.64,0.65-0.84,1.06
		c-0.15,0.29-0.24,0.61-0.28,0.95l-2.71-3.92c0.08-0.08,0.15-0.16,0.23-0.25c0.04-0.04,0.08-0.08,0.12-0.12
		c0.02-0.02,0.04-0.04,0.06-0.06c0.04-0.04,0.07-0.07,0.11-0.1c0.04-0.04,0.08-0.08,0.13-0.11c0,0,0.01-0.01,0.01-0.01
		c0.04-0.03,0.08-0.06,0.11-0.1c0.73-0.6,1.61-1.06,2.62-1.38c1.02-0.32,2.12-0.48,3.31-0.48H36.95z"/>
	<path class="st1" d="M29.92,36.98h-1.2c-0.84-0.07-1.63-0.24-2.37-0.5c-0.19-0.07-0.38-0.14-0.57-0.22
		c-0.78-0.33-1.46-0.75-2.06-1.25c-0.53-0.45-0.98-0.96-1.34-1.53c0,0,0,0,0,0c0,0-0.01-0.01-0.01-0.01
		c-0.19-0.25-0.41-0.55-0.66-0.92c-0.25-0.38-0.5-0.73-0.73-1.06l-0.08-0.12l-2.39-3.53l-6.46,9.14H7.01l8.83-12.45
		c0.29-0.4,0.65-0.76,1.09-1.07c0.44-0.32,0.99-0.47,1.67-0.47c0.64,0,1.18,0.15,1.62,0.44c0.43,0.3,0.8,0.66,1.1,1.1l0.89,1.29
		l0.35,0.51l0.57,0.82l2.57,3.72l1.28,1.85L29.92,36.98z"/>
	<path class="st1" d="M36.22,33.48l-2.74,3.54h-2.83l-2.61-3.78c0,0,0,0,0.01,0c0.49,0.16,1.03,0.24,1.61,0.24H36.22z"/>
	<path class="st1" d="M52.99,32.47c0,0.7-0.11,1.33-0.33,1.89c-0.22,0.56-0.57,1.04-1.05,1.42c-0.48,0.38-1.09,0.68-1.84,0.88
		c-0.75,0.21-1.64,0.31-2.69,0.31H34.26l2.71-3.5L37,33.44h10.41c0.51,0,0.88-0.08,1.11-0.24c0.23-0.16,0.35-0.41,0.35-0.77
		c0-0.36-0.12-0.61-0.35-0.76c-0.23-0.15-0.6-0.23-1.11-0.23h-7.49c-0.89,0-1.66-0.1-2.31-0.29c-0.65-0.19-1.18-0.46-1.61-0.8
		c-0.43-0.34-0.74-0.76-0.95-1.25c-0.2-0.49-0.31-1.02-0.31-1.62c0-0.02,0-0.05,0-0.07c0-0.2,0.02-0.4,0.04-0.59
		c0.05-0.39,0.15-0.76,0.3-1.1c0.23-0.53,0.58-0.98,1.05-1.35c0.47-0.37,1.08-0.66,1.83-0.86c0.4-0.11,0.84-0.19,1.32-0.24
		c0.25-0.03,0.51-0.04,0.79-0.06c0.19-0.01,0.38-0.01,0.58-0.01h11.96l-2.74,3.58h-9.55c-0.49,0-0.86,0.07-1.1,0.2
		c-0.24,0.14-0.36,0.39-0.36,0.74c0,0.36,0.12,0.61,0.36,0.75c0.24,0.14,0.61,0.22,1.1,0.22h7.49c1.69,0,2.97,0.31,3.85,0.94
		C52.55,30.27,52.99,31.21,52.99,32.47z"/>
</g>
<g>
	<path class="st2" d="M73.84,28.38l7.74-17.36h3.97l7.76,17.36H89.1l-6.35-15.33h1.59l-6.37,15.33H73.84z M77.71,24.65l1.07-3.05
		h8.93l1.09,3.05H77.71z"/>
	<path class="st2" d="M95.13,28.38V11.01h7.52c1.55,0,2.89,0.25,4.02,0.76c1.12,0.5,1.99,1.23,2.6,2.17
		c0.61,0.94,0.92,2.07,0.92,3.37c0,1.29-0.31,2.4-0.92,3.34c-0.61,0.93-1.48,1.65-2.6,2.15c-1.12,0.5-2.46,0.74-4.02,0.74h-5.28
		l1.79-1.76v6.6H95.13z M99.14,22.22l-1.79-1.88h5.06c1.24,0,2.17-0.27,2.78-0.81c0.61-0.54,0.92-1.28,0.92-2.22
		c0-0.96-0.31-1.7-0.92-2.23c-0.61-0.53-1.54-0.79-2.78-0.79h-5.06l1.79-1.91V22.22z M106.16,28.38l-4.34-6.3h4.29l4.39,6.3H106.16z
		"/>
	<path class="st2" d="M113.36,28.38V11.01h4.02v17.36H113.36z"/>
	<path class="st2" d="M125.51,28.38h-4.02V11.01h13.12v3.22h-9.1V28.38z M125.21,18.83h8.33v3.22h-8.33V18.83z"/>
	<path class="st2" d="M145.05,28.67c-2.46,0-4.39-0.69-5.78-2.06c-1.39-1.37-2.08-3.33-2.08-5.88v-9.72h4.02v9.57
		c0,1.65,0.34,2.84,1.02,3.57c0.68,0.73,1.63,1.09,2.85,1.09s2.17-0.36,2.85-1.09c0.68-0.73,1.02-1.92,1.02-3.57v-9.57h3.97v9.72
		c0,2.55-0.69,4.51-2.08,5.88C149.45,27.99,147.52,28.67,145.05,28.67z"/>
	<path class="st2" d="M156.89,28.38V11.01h4.02V25.1h8.71v3.27H156.89z"/>
</g>
<g>
	<path class="st3" d="M77.84,38.71c-0.57,0-1.1-0.09-1.59-0.28c-0.49-0.19-0.91-0.45-1.27-0.8c-0.36-0.34-0.64-0.75-0.84-1.21
		c-0.2-0.46-0.3-0.97-0.3-1.53s0.1-1.06,0.3-1.53c0.2-0.46,0.48-0.87,0.84-1.21c0.36-0.34,0.78-0.61,1.27-0.8
		c0.48-0.19,1.02-0.28,1.59-0.28c0.64,0,1.22,0.11,1.73,0.33s0.95,0.55,1.3,0.97l-1.1,1.01c-0.25-0.29-0.53-0.5-0.84-0.65
		s-0.65-0.22-1.01-0.22c-0.34,0-0.66,0.06-0.95,0.17c-0.29,0.11-0.54,0.27-0.75,0.48c-0.21,0.21-0.37,0.46-0.49,0.75
		s-0.17,0.61-0.17,0.96c0,0.35,0.06,0.67,0.17,0.96s0.28,0.54,0.49,0.75c0.21,0.21,0.46,0.37,0.75,0.48s0.6,0.17,0.95,0.17
		c0.37,0,0.7-0.07,1.01-0.22c0.31-0.14,0.59-0.36,0.84-0.66l1.1,1.01c-0.35,0.43-0.78,0.75-1.3,0.98S78.48,38.71,77.84,38.71z"/>
	<path class="st3" d="M88.86,38.58V31.2h3.19c0.66,0,1.23,0.11,1.71,0.32c0.48,0.21,0.85,0.52,1.11,0.92
		c0.26,0.4,0.39,0.88,0.39,1.43c0,0.55-0.13,1.02-0.39,1.42c-0.26,0.4-0.63,0.7-1.11,0.91c-0.48,0.21-1.05,0.32-1.71,0.32h-2.24
		l0.76-0.75v2.8H88.86z M90.57,35.97l-0.76-0.8h2.15c0.53,0,0.92-0.11,1.18-0.34c0.26-0.23,0.39-0.54,0.39-0.94
		c0-0.41-0.13-0.72-0.39-0.95c-0.26-0.22-0.65-0.34-1.18-0.34h-2.15l0.76-0.81V35.97z M93.55,38.58L91.7,35.9h1.82l1.86,2.68H93.55z
		"/>
	<path class="st3" d="M105.73,37.21h4.01v1.37h-5.71V31.2h5.57v1.37h-3.88V37.21z M105.6,34.18h3.55v1.33h-3.55V34.18z"/>
	<path class="st3" d="M117.51,38.58l3.29-7.37h1.69l3.3,7.37h-1.79l-2.7-6.51h0.67l-2.71,6.51H117.51z M119.16,37l0.45-1.3h3.79
		l0.46,1.3H119.16z"/>
	<path class="st3" d="M135.56,38.58V32.6h-2.36V31.2h6.43v1.39h-2.36v5.98H135.56z"/>
	<path class="st3" d="M151.18,38.71c-0.58,0-1.12-0.09-1.62-0.28s-0.92-0.46-1.29-0.8c-0.36-0.34-0.64-0.75-0.84-1.21
		c-0.2-0.46-0.3-0.97-0.3-1.52s0.1-1.05,0.3-1.52c0.2-0.46,0.48-0.87,0.85-1.21s0.79-0.61,1.29-0.8c0.49-0.19,1.03-0.28,1.6-0.28
		c0.58,0,1.12,0.09,1.61,0.28c0.49,0.19,0.91,0.46,1.27,0.8s0.64,0.75,0.85,1.21c0.2,0.46,0.3,0.97,0.3,1.52
		c0,0.55-0.1,1.06-0.3,1.52c-0.2,0.47-0.49,0.87-0.85,1.21s-0.79,0.61-1.27,0.79S151.76,38.71,151.18,38.71z M151.17,37.25
		c0.33,0,0.63-0.06,0.91-0.17s0.52-0.27,0.73-0.48c0.21-0.21,0.37-0.46,0.49-0.75c0.12-0.29,0.17-0.61,0.17-0.96
		c0-0.35-0.06-0.67-0.17-0.96c-0.12-0.29-0.28-0.54-0.48-0.75c-0.21-0.21-0.45-0.37-0.73-0.48c-0.28-0.11-0.59-0.17-0.92-0.17
		c-0.33,0-0.63,0.06-0.91,0.17c-0.28,0.11-0.52,0.27-0.73,0.48c-0.21,0.21-0.37,0.46-0.49,0.75s-0.17,0.61-0.17,0.96
		c0,0.34,0.06,0.66,0.17,0.95c0.12,0.29,0.28,0.54,0.48,0.75s0.45,0.37,0.73,0.48S150.84,37.25,151.17,37.25z"/>
	<path class="st3" d="M162.67,38.58V31.2h3.19c0.66,0,1.23,0.11,1.71,0.32s0.85,0.52,1.11,0.92c0.26,0.4,0.39,0.88,0.39,1.43
		c0,0.55-0.13,1.02-0.39,1.42c-0.26,0.4-0.63,0.7-1.11,0.91c-0.48,0.21-1.05,0.32-1.71,0.32h-2.24l0.76-0.75v2.8H162.67z
		 M164.37,35.97l-0.76-0.8h2.15c0.53,0,0.92-0.11,1.18-0.34c0.26-0.23,0.39-0.54,0.39-0.94c0-0.41-0.13-0.72-0.39-0.95
		c-0.26-0.22-0.65-0.34-1.18-0.34h-2.15l0.76-0.81V35.97z M167.36,38.58l-1.84-2.68h1.82l1.86,2.68H167.36z"/>
</g>
<g>
	<path class="st4" d="M76.85,48.99c-0.59,0-1.16-0.08-1.7-0.24c-0.54-0.16-0.98-0.36-1.31-0.62l0.58-1.29
		c0.32,0.23,0.69,0.41,1.12,0.55c0.43,0.14,0.87,0.22,1.31,0.22c0.34,0,0.61-0.03,0.82-0.1c0.21-0.07,0.36-0.16,0.46-0.28
		c0.1-0.12,0.15-0.26,0.15-0.41c0-0.2-0.08-0.35-0.23-0.47c-0.15-0.12-0.36-0.21-0.61-0.28c-0.25-0.07-0.53-0.14-0.84-0.21
		c-0.31-0.07-0.61-0.15-0.92-0.25c-0.31-0.1-0.58-0.22-0.84-0.38s-0.46-0.36-0.62-0.61c-0.16-0.25-0.24-0.58-0.24-0.97
		c0-0.42,0.11-0.81,0.34-1.15c0.23-0.35,0.57-0.62,1.03-0.83s1.04-0.31,1.73-0.31c0.46,0,0.92,0.05,1.37,0.16
		c0.45,0.11,0.85,0.27,1.19,0.49l-0.53,1.3c-0.34-0.2-0.69-0.34-1.03-0.44s-0.68-0.14-1.01-0.14c-0.33,0-0.6,0.04-0.81,0.12
		c-0.21,0.08-0.36,0.18-0.45,0.3c-0.09,0.12-0.14,0.27-0.14,0.43c0,0.19,0.08,0.34,0.23,0.46c0.15,0.12,0.36,0.21,0.61,0.28
		c0.25,0.07,0.53,0.14,0.84,0.21c0.31,0.07,0.61,0.15,0.92,0.24c0.31,0.09,0.58,0.21,0.84,0.37s0.46,0.36,0.62,0.61
		s0.24,0.57,0.24,0.96c0,0.42-0.12,0.79-0.35,1.14c-0.23,0.34-0.58,0.62-1.04,0.83S77.55,48.99,76.85,48.99z"/>
	<path class="st4" d="M93.73,48.86v-5.98h-2.36v-1.39h6.43v1.39h-2.36v5.98H93.73z"/>
	<path class="st4" d="M112.26,48.99c-1.05,0-1.86-0.29-2.45-0.87s-0.89-1.42-0.89-2.5v-4.13h1.71v4.07c0,0.7,0.14,1.21,0.43,1.52
		c0.29,0.31,0.69,0.46,1.21,0.46c0.52,0,0.92-0.15,1.21-0.46c0.29-0.31,0.43-0.81,0.43-1.52v-4.07h1.69v4.13
		c0,1.08-0.29,1.91-0.89,2.5C114.12,48.7,113.31,48.99,112.26,48.99z"/>
	<path class="st4" d="M126.22,48.86v-7.38h3.35c0.8,0,1.51,0.15,2.12,0.46c0.61,0.3,1.09,0.73,1.43,1.28
		c0.34,0.55,0.52,1.2,0.52,1.95c0,0.75-0.17,1.39-0.52,1.94c-0.34,0.55-0.82,0.98-1.43,1.29c-0.61,0.31-1.32,0.46-2.12,0.46H126.22z
		 M127.93,47.46h1.56c0.49,0,0.92-0.09,1.28-0.28c0.36-0.19,0.64-0.45,0.84-0.79c0.2-0.34,0.3-0.75,0.3-1.21
		c0-0.47-0.1-0.88-0.3-1.22s-0.48-0.6-0.84-0.79c-0.36-0.19-0.79-0.28-1.28-0.28h-1.56V47.46z"/>
	<path class="st4" d="M146.75,48.86v-7.38h1.71v7.38H146.75z"/>
	<path class="st4" d="M165.29,48.99c-0.58,0-1.12-0.09-1.62-0.28s-0.92-0.46-1.29-0.8c-0.36-0.34-0.64-0.75-0.84-1.21
		c-0.2-0.46-0.3-0.97-0.3-1.52s0.1-1.05,0.3-1.52c0.2-0.46,0.48-0.87,0.85-1.21s0.79-0.61,1.29-0.8c0.49-0.19,1.03-0.28,1.6-0.28
		c0.58,0,1.12,0.09,1.61,0.28s0.91,0.46,1.27,0.8s0.64,0.75,0.85,1.21c0.2,0.46,0.3,0.97,0.3,1.52c0,0.55-0.1,1.06-0.3,1.52
		c-0.2,0.47-0.49,0.87-0.85,1.21s-0.79,0.61-1.27,0.79S165.87,48.99,165.29,48.99z M165.28,47.53c0.33,0,0.63-0.06,0.91-0.17
		s0.52-0.27,0.73-0.48c0.21-0.21,0.37-0.46,0.49-0.75c0.12-0.29,0.17-0.61,0.17-0.96c0-0.35-0.06-0.67-0.17-0.96
		c-0.12-0.29-0.28-0.54-0.48-0.75c-0.21-0.21-0.45-0.37-0.73-0.48s-0.59-0.17-0.92-0.17c-0.33,0-0.63,0.06-0.91,0.17
		s-0.52,0.27-0.73,0.48c-0.21,0.21-0.37,0.46-0.49,0.75c-0.12,0.29-0.17,0.61-0.17,0.96c0,0.34,0.06,0.66,0.17,0.95
		c0.12,0.29,0.28,0.54,0.48,0.75s0.45,0.37,0.73,0.48S164.95,47.53,165.28,47.53z"/>
</g>
</svg>
