<?xml version="1.0" encoding="utf-8"?>
<!-- Generator: Adobe Illustrator 17.1.0, SVG Export Plug-In . SVG Version: 6.00 Build 0)  -->
<!DOCTYPE svg PUBLIC "-//W3C//DTD SVG 1.1//EN" "http://www.w3.org/Graphics/SVG/1.1/DTD/svg11.dtd">
<svg version="1.1" id="Layer_1" xmlns="http://www.w3.org/2000/svg" xmlns:xlink="http://www.w3.org/1999/xlink" x="0px" y="0px"
	 viewBox="0 0 187 60" enable-background="new 0 0 187 60" xml:space="preserve">
<path fill="#FFFFFF" d="M0,30c0-9.3,0-14,1.5-17.7c2-4.9,5.9-8.8,10.8-10.8C16,0,20.7,0,30,0l0,0c9.3,0,14,0,17.7,1.5
	c4.9,2,8.8,5.9,10.8,10.8C60,16,60,20.7,60,30l0,0c0,9.3,0,14-1.5,17.7c-2,4.9-5.9,8.8-10.8,10.8C44,60,39.3,60,30,60l0,0
	c-9.3,0-14,0-17.7-1.5c-4.9-2-8.8-5.9-10.8-10.8C0,44,0,39.3,0,30L0,30z"/>
<g>
	<path fill="#214473" d="M22.5,36.2c-0.8-0.7-1.4-1.4-1.9-2.3c-0.2,0-0.3,0-0.5,0h-5.4l-2.9,4h13.7C24.3,37.5,23.3,36.9,22.5,36.2z"
		/>
	<path fill="#94CECD" d="M37.9,22.4c-0.5,0.2-0.9,0.5-1.3,0.8c-0.6,0.5-1.1,1.1-1.4,1.8c-0.2,0.5-0.3,1-0.4,1.5h-5.1
		c-0.7,0-1.3,0.1-1.8,0.3c-0.6,0.2-1,0.4-1.4,0.8c-0.4,0.3-0.7,0.7-1,1.2c-0.2,0.3-0.3,0.7-0.3,1.1L22,25.3c0.1-0.1,0.2-0.2,0.3-0.3
		c0,0,0.1-0.1,0.1-0.1c0,0,0,0,0.1-0.1c0,0,0.1-0.1,0.1-0.1c0,0,0.1-0.1,0.1-0.1c0,0,0,0,0,0c0,0,0.1-0.1,0.1-0.1
		c0.8-0.7,1.8-1.2,3-1.6c1.1-0.4,2.4-0.5,3.8-0.5H37.9z"/>
	<path fill="#214473" d="M29.9,37.9h-1.4c-0.9-0.1-1.8-0.3-2.7-0.6c-0.2-0.1-0.4-0.2-0.6-0.2c-0.9-0.4-1.7-0.8-2.3-1.4
		c-0.6-0.5-1.1-1.1-1.5-1.7c0,0,0,0,0,0c0,0,0,0,0,0c-0.2-0.3-0.5-0.6-0.7-1c-0.3-0.4-0.6-0.8-0.8-1.2l-0.1-0.1l-2.7-4L9.7,37.9H4
		l10-14.1c0.3-0.5,0.7-0.9,1.2-1.2c0.5-0.4,1.1-0.5,1.9-0.5c0.7,0,1.3,0.2,1.8,0.5c0.5,0.3,0.9,0.7,1.2,1.2l1,1.5l0.4,0.6l0.6,0.9
		l2.9,4.2l1.4,2.1L29.9,37.9z"/>
	<path fill="#94CECD" d="M37,33.9l-3.1,4h-3.2l-3-4.3c0,0,0,0,0,0c0.6,0.2,1.2,0.3,1.8,0.3H37z"/>
	<path fill="#FECA51" d="M56,32.8c0,0.8-0.1,1.5-0.4,2.1c-0.2,0.6-0.6,1.2-1.2,1.6c-0.5,0.4-1.2,0.8-2.1,1c-0.8,0.2-1.9,0.3-3,0.3
		H34.8l3.1-4l0,0h11.8c0.6,0,1-0.1,1.3-0.3c0.3-0.2,0.4-0.5,0.4-0.9c0-0.4-0.1-0.7-0.4-0.9c-0.3-0.2-0.7-0.3-1.3-0.3h-8.5
		c-1,0-1.9-0.1-2.6-0.3c-0.7-0.2-1.3-0.5-1.8-0.9C36.3,30,36,29.5,35.7,29c-0.2-0.6-0.3-1.2-0.3-1.8c0,0,0-0.1,0-0.1
		c0-0.2,0-0.5,0-0.7c0.1-0.4,0.2-0.9,0.3-1.2c0.3-0.6,0.7-1.1,1.2-1.5c0.5-0.4,1.2-0.7,2.1-1c0.4-0.1,0.9-0.2,1.5-0.3
		c0.3,0,0.6-0.1,0.9-0.1c0.2,0,0.4,0,0.7,0h13.5l-3.1,4.1H41.7c-0.6,0-1,0.1-1.2,0.2C40.2,26.8,40,27,40,27.4c0,0.4,0.1,0.7,0.4,0.9
		c0.3,0.2,0.7,0.2,1.2,0.2h8.5c1.9,0,3.4,0.4,4.4,1.1C55.5,30.3,56,31.4,56,32.8z"/>
</g>
<text transform="matrix(1 0 0 1 65.6748 27.4857)" font-family="'Montserrat-Bold'" font-size="13.0655">ARIFUL CREATOR</text>
<g>
	<text transform="matrix(1 0 0 1 65.5577 44.0814)" font-family="'Montserrat-Bold'" font-size="13.0655">STUDIO</text>
</g>
</svg>
